<?xml version="1.0" standalone="no"?>
<!DOCTYPE svg PUBLIC "-//W3C//DTD SVG 20010904//EN"
 "http://www.w3.org/TR/2001/REC-SVG-20010904/DTD/svg10.dtd">
<svg version="1.0" xmlns="http://www.w3.org/2000/svg"
 width="100.000000pt" height="100.000000pt" viewBox="0 0 100.000000 100.000000"
 preserveAspectRatio="xMidYMid meet">
<metadata>
Created by potrace 1.16, written by Peter Selinger 2001-2019
</metadata>
<g transform="translate(1.000000,23.200000) scale(0.022200,-0.022200)" stroke="none">
<path d="M435 900 c-80 -12 -160 -54 -221 -114 -98 -99 -140 -239 -110 -370
21 -90 49 -140 112 -203 159 -159 410 -158 570 1 277 278 37 746 -351 686z
m158 -136 c55 -18 145 -110 154 -156 3 -16 14 -33 24 -39 28 -14 23 -36 -11
-54 -100 -52 -470 -38 -545 20 -20 15 -20 15 1 32 12 10 31 37 42 59 66 131
197 185 335 138z m-325 -280 c123 -38 396 -38 489 1 19 8 38 15 41 15 12 0
-11 -100 -34 -148 -80 -163 -330 -191 -450 -50 -15 18 -40 60 -56 93 -28 57
-29 58 -23 20 7 -43 36 -104 60 -129 9 -9 12 -16 7 -16 -17 0 -74 78 -88 120
-8 22 -17 58 -20 81 -7 39 -6 42 12 34 10 -4 39 -14 62 -21z"/>
</g>
</svg>
